{
  "accessors": [
    {
      "bufferView": 2,
      "componentType": 5126,
      "count": 2473,
      "max": [
        0.08183064311742783,
        0.04405242204666138,
        0.052014220505952835
      ],
      "min": [
        -0.08183065056800842,
        -0.10095074772834778,
        0.01251182984560728
      ],
      "type": "VEC3"
    },
    {
      "bufferView": 2,
      "byteOffset": 29676,
      "componentType": 5126,
      "count": 2473,
      "max": [
        0.9999717473983765,
        0.9997382760047913,
        1.0
      ],
      "min": [
        -0.9999717473983765,
        -0.9997420310974121,
        -1.0
      ],
      "type": "VEC3"
    },
    {
      "bufferView": 3,
      "componentType": 5126,
      "count": 2473,
      "max": [
        0.9978165030479431,
        0.9999866485595703,
        1.0,
        1.0
      ],
      "min": [
        -0.9953204989433289,
        -0.9989271759986877,
        -0.9999998807907104,
        1.0
      ],
      "type": "VEC4"
    },
    {
      "bufferView": 1,
      "componentType": 5126,
      "count": 2473,
      "max": [
        0.9508833289146423,
        0.9992886185646057
      ],
      "min": [
        0.01675724983215332,
        0.0007113541360013187
      ],
      "type": "VEC2"
    },
    {
      "bufferView": 1,
      "byteOffset": 19784,
      "componentType": 5126,
      "count": 2473,
      "max": [
        0.9508833289146423,
        0.9992886185646057
      ],
      "min": [
        0.01675724983215332,
        0.0007113541360013187
      ],
      "type": "VEC2"
    },
    {
      "bufferView": 1,
      "byteOffset": 39568,
      "componentType": 5126,
      "count": 2473,
      "max": [
        0.9508833289146423,
        0.9992886185646057
      ],
      "min": [
        0.01675724983215332,
        0.0007113541360013187
      ],
      "type": "VEC2"
    },
    {
      "bufferView": 0,
      "componentType": 5125,
      "count": 10152,
      "type": "SCALAR"
    }
  ],
  "asset": {
    "extras": {
      "author": "DeepDown (https://sketchfab.com/deepdown)",
      "license": "CC-BY-4.0 (http://creativecommons.org/licenses/by/4.0/)",
      "source": "https://sketchfab.com/3d-models/black-sunglasses-a1258dfd672a40a6b16118506f970cfe",
      "title": "Black Sunglasses"
    },
    "generator": "Sketchfab-11.77.0",
    "version": "2.0"
  },
  "bufferViews": [
    {
      "buffer": 0,
      "byteLength": 40608,
      "name": "floatBufferViews",
      "target": 34963
    },
    {
      "buffer": 0,
      "byteLength": 59352,
      "byteOffset": 40608,
      "byteStride": 8,
      "name": "floatBufferViews",
      "target": 34962
    },
    {
      "buffer": 0,
      "byteLength": 59352,
      "byteOffset": 99960,
      "byteStride": 12,
      "name": "floatBufferViews",
      "target": 34962
    },
    {
      "buffer": 0,
      "byteLength": 39568,
      "byteOffset": 159312,
      "byteStride": 16,
      "name": "floatBufferViews",
      "target": 34962
    }
  ],
  "buffers": [
    {
      "byteLength": 198880,
      "uri": "scene.bin"
    }
  ],
  "images": [
    {
      "uri": "textures/Glasses_silver_baseColor.png"
    },
    {
      "uri": "textures/Glasses_silver_metallicRoughness.png"
    },
    {
      "uri": "textures/Glasses_silver_normal.png"
    }
  ],
  "materials": [
    {
      "alphaCutoff": 1.0,
      "alphaMode": "MASK",
      "doubleSided": true,
      "name": "Glasses_silver",
      "normalTexture": {
        "index": 2
      },
      "pbrMetallicRoughness": {
        "baseColorTexture": {
          "index": 0
        },
        "metallicRoughnessTexture": {
          "index": 1
        }
      }
    }
  ],
  "meshes": [
    {
      "name": "Glasses_silver_Glasses_silver_0",
      "primitives": [
        {
          "attributes": {
            "NORMAL": 1,
            "POSITION": 0,
            "TANGENT": 2,
            "TEXCOORD_0": 3,
            "TEXCOORD_1": 4,
            "TEXCOORD_2": 5
          },
          "indices": 6,
          "material": 0,
          "mode": 4
        }
      ]
    }
  ],
  "nodes": [
    {
      "children": [
        1
      ],
      "matrix": [
        1.0,
        0.0,
        0.0,
        0.0,
        0.0,
        2.220446049250313e-16,
        -1.0,
        0.0,
        0.0,
        1.0,
        2.220446049250313e-16,
        0.0,
        0.0,
        0.0,
        0.0,
        1.0
      ],
      "name": "Sketchfab_model"
    },
    {
      "children": [
        2
      ],
      "matrix": [
        0.009999999776482582,
        0.0,
        0.0,
        0.0,
        0.0,
        0.0,
        0.009999999776482582,
        0.0,
        0.0,
        -0.009999999776482582,
        0.0,
        0.0,
        0.0,
        0.0,
        0.0,
        1.0
      ],
      "name": "FBX_Glasses_silver.fbx"
    },
    {
      "children": [
        3
      ],
      "name": "RootNode"
    },
    {
      "children": [
        4
      ],
      "matrix": [
        100.0,
        0.0,
        0.0,
        0.0,
        0.0,
        -1.629206793918314e-05,
        -99.99999999999868,
        0.0,
        0.0,
        99.99999999999868,
        -1.629206793918314e-05,
        0.0,
        0.0,
        -0.18304985761642456,
        0.0,
        1.0
      ],
      "name": "Glasses_silver"
    },
    {
      "mesh": 0,
      "name": "Glasses_silver_Glasses_silver_0"
    }
  ],
  "samplers": [
    {
      "magFilter": 9729,
      "minFilter": 9987,
      "wrapS": 10497,
      "wrapT": 10497
    }
  ],
  "scene": 0,
  "scenes": [
    {
      "name": "Sketchfab_Scene",
      "nodes": [
        0
      ]
    }
  ],
  "textures": [
    {
      "sampler": 0,
      "source": 0
    },
    {
      "sampler": 0,
      "source": 1
    },
    {
      "sampler": 0,
      "source": 2
    }
  ]
}
