{
    "asset" : {
        "generator" : "Khronos glTF Blender I/O v1.6.16",
        "version" : "2.0"
    },
    "scene" : 0,
    "scenes" : [
        {
            "name" : "Scene",
            "nodes" : [
                0,
                1,
                2,
                3
            ]
        }
    ],
    "nodes" : [
        {
            "name" : "Light",
            "rotation" : [
                0.16907575726509094,
                0.7558803558349609,
                -0.27217137813568115,
                0.570947527885437
            ],
            "translation" : [
                4.076245307922363,
                5.903861999511719,
                -1.0054539442062378
            ]
        },
        {
            "name" : "Camera",
            "rotation" : [
                0.483536034822464,
                0.33687159419059753,
                -0.20870360732078552,
                0.7804827094078064
            ],
            "translation" : [
                7.358891487121582,
                4.958309173583984,
                6.925790786743164
            ]
        },
        {
            "mesh" : 0,
            "name" : "Cube",
            "rotation" : [
                -0.00021940954320598394,
                0.02890801802277565,
                0.9995763897895813,
                0.0033658251632004976
            ],
            "scale" : [
                -0.2859342694282532,
                -0.2859342694282532,
                -0.05976302549242973
            ],
            "translation" : [
                0,
                0.9944487810134888,
                0
            ]
        },
        {
            "name" : "Camera.001",
            "rotation" : [
                0.003693658160045743,
                0.7384704351425171,
                -0.6742636561393738,
                0.004036795347929001
            ],
            "translation" : [
                0.2653846740722656,
                1.0419707298278809,
                -8.231188774108887
            ]
        }
    ],
    "materials" : [
        {
            "doubleSided" : true,
            "name" : "Material.002",
            "pbrMetallicRoughness" : {
                "baseColorFactor" : [
                    0.800000011920929,
                    0.800000011920929,
                    0.800000011920929,
                    1
                ],
                "roughnessFactor" : 0.5527864098548889
            }
        },
        {
            "doubleSided" : true,
            "name" : "Material.004",
            "pbrMetallicRoughness" : {
                "baseColorFactor" : [
                    0.800000011920929,
                    0.800000011920929,
                    0.800000011920929,
                    1
                ],
                "roughnessFactor" : 0.5527864098548889
            }
        }
    ],
    "meshes" : [
        {
            "name" : "Cube.001",
            "primitives" : [
                {
                    "attributes" : {
                        "POSITION" : 0,
                        "NORMAL" : 1
                    },
                    "indices" : 2,
                    "material" : 0
                },
                {
                    "attributes" : {
                        "POSITION" : 3,
                        "NORMAL" : 4
                    },
                    "indices" : 5,
                    "material" : 1
                }
            ]
        }
    ],
    "accessors" : [
        {
            "bufferView" : 0,
            "componentType" : 5126,
            "count" : 150,
            "max" : [
                11.435046195983887,
                0.9017810225486755,
                6.323805332183838
            ],
            "min" : [
                -11.435046195983887,
                -6.127792835235596,
                -0.8871241807937622
            ],
            "type" : "VEC3"
        },
        {
            "bufferView" : 1,
            "componentType" : 5126,
            "count" : 150,
            "type" : "VEC3"
        },
        {
            "bufferView" : 2,
            "componentType" : 5123,
            "count" : 738,
            "type" : "SCALAR"
        },
        {
            "bufferView" : 3,
            "componentType" : 5126,
            "count" : 610,
            "max" : [
                13.313898086547852,
                1.4945865869522095,
                126.5296859741211
            ],
            "min" : [
                -13.313898086547852,
                -6.554940700531006,
                -1
            ],
            "type" : "VEC3"
        },
        {
            "bufferView" : 4,
            "componentType" : 5126,
            "count" : 610,
            "type" : "VEC3"
        },
        {
            "bufferView" : 5,
            "componentType" : 5123,
            "count" : 3168,
            "type" : "SCALAR"
        }
    ],
    "bufferViews" : [
        {
            "buffer" : 0,
            "byteLength" : 1800,
            "byteOffset" : 0
        },
        {
            "buffer" : 0,
            "byteLength" : 1800,
            "byteOffset" : 1800
        },
        {
            "buffer" : 0,
            "byteLength" : 1476,
            "byteOffset" : 3600
        },
        {
            "buffer" : 0,
            "byteLength" : 7320,
            "byteOffset" : 5076
        },
        {
            "buffer" : 0,
            "byteLength" : 7320,
            "byteOffset" : 12396
        },
        {
            "buffer" : 0,
            "byteLength" : 6336,
            "byteOffset" : 19716
        }
    ],
    "buffers" : [
        {
            "byteLength" : 26052,
            "uri" : "data:application/octet-stream;base64,"
        }
    ]
}
